<?xml version="1.0" encoding="UTF-8" standalone="no"?>
<svg
   version="1.0"
   width="530.000000pt"
   height="334.000000pt"
   viewBox="0 0 530.000000 334.000000"
   preserveAspectRatio="xMidYMid meet"
   id="svg286"
   sodipodi:docname="e-store.svg"
   xml:space="preserve"
   inkscape:version="1.4 (e7c3feb1, 2024-10-09)"
   inkscape:export-filename="e-store.png"
   inkscape:export-xdpi="96"
   inkscape:export-ydpi="96"
   xmlns:inkscape="http://www.inkscape.org/namespaces/inkscape"
   xmlns:sodipodi="http://sodipodi.sourceforge.net/DTD/sodipodi-0.dtd"
   xmlns="http://www.w3.org/2000/svg"
   xmlns:svg="http://www.w3.org/2000/svg"><defs
     id="defs286" /><sodipodi:namedview
     id="namedview286"
     pagecolor="#505050"
     bordercolor="#eeeeee"
     borderopacity="1"
     inkscape:showpageshadow="0"
     inkscape:pageopacity="0"
     inkscape:pagecheckerboard="0"
     inkscape:deskcolor="#505050"
     inkscape:document-units="pt"
     inkscape:zoom="0.66053088"
     inkscape:cx="613.14317"
     inkscape:cy="134.7401"
     inkscape:window-width="1920"
     inkscape:window-height="1027"
     inkscape:window-x="1891"
     inkscape:window-y="51"
     inkscape:window-maximized="0"
     inkscape:current-layer="svg286" /><path
     id="rect286"
     style="fill:#0d3c61;stroke:none;stroke-width:0.723902;fill-opacity:1"
     d="M 69.035156 17.649902 C 35.230503 17.649902 8.015625 44.86478 8.015625 78.669434 L 8.015625 251.31592 C 8.015625 285.12057 35.230503 312.33545 69.035156 312.33545 L 199.63037 312.33545 A 38.38607 47.895462 0 0 1 176.27197 289.89844 L 83.148926 289.89844 C 54.399966 289.89844 31.255371 266.75384 31.255371 238.00488 L 31.255371 91.177734 C 31.255371 62.428775 54.399966 39.285645 83.148926 39.285645 L 162.08057 39.285645 A 38.797291 30.42334 0 0 0 140.28076 17.649902 L 69.035156 17.649902 z M 145.74023 17.649902 A 38.797291 30.42334 0 0 1 166.19092 39.285645 L 446.75391 39.285645 C 475.50287 39.285645 498.64746 62.428775 498.64746 91.177734 L 498.64746 238.00488 C 498.64746 266.75384 475.50287 289.89844 446.75391 289.89844 L 359.94434 289.89844 A 38.38607 47.895462 0 0 1 336.58594 312.33545 L 460.06641 312.33545 C 493.87106 312.33545 521.08447 285.12057 521.08447 251.31592 L 521.08447 78.669434 C 521.08447 44.86478 493.87106 17.649902 460.06641 17.649902 L 145.74023 17.649902 z M 242.7085 289.89844 A 38.38607 47.895462 0 0 1 219.3501 312.33545 L 316.86621 312.33545 A 38.38607 47.895462 0 0 1 293.50781 289.89844 L 242.7085 289.89844 z " /><path
     id="path292"
     style="fill:#0d3c61;stroke:none;stroke-width:0.75;fill-opacity:1"
     d="M 113.60817,71.858173 C 106.38221,71.724359 99.15625,71.590545 91.93029,71.456731 80.651123,71.889533 76.963943,55.316609 87.915863,52.1875 c 11.909456,0.267628 23.818907,0.535257 35.728367,0.802885 5.61264,0.03477 10.16114,2.273802 12.04327,10.036057 15.12099,44.827728 30.24199,89.655448 45.36298,134.483178 1.63201,5.91102 3.58937,11.47168 12.04327,10.03605 43.35577,-3.07772 86.71154,-6.15545 130.06731,-9.23317 12.07858,-0.68094 15.9365,-5.78838 17.66346,-12.04327 8.96554,-30.10817 17.93109,-60.21635 26.89663,-90.324518 C 370.87306,86.594258 364.54812,83.229185 352.46635,83.5 288.50321,81.492789 224.54006,79.485577 160.57692,77.478366 c -6.35921,0.725505 -7.51447,-6.065815 -9.23317,-12.04327 -8.00322,-25.223726 -16.12645,-24.160576 -28.5024,-26.896634 12.3109,-1.204327 24.62179,-2.408654 36.93269,-3.612981 5.13379,6.479717 7.68249,14.682826 9.63461,23.283654 -4.3852,5.399314 133.88101,2.709735 190.28366,7.225961 20.40938,1.844326 30.56166,12.350212 26.89663,34.524039 -8.83173,29.706735 -17.66346,59.413465 -26.49519,89.120195 -5.26638,21.85056 -20.4964,27.68116 -39.34135,27.69952 -38.9399,2.27484 -77.87981,4.54968 -116.81971,6.82452 -19.2321,1.91219 -36.75215,1.39146 -40.94711,-18.06491 -14.05048,-42.82051 -28.10097,-85.64102 -42.15145,-128.461537 -0.83291,-3.745076 -3.45229,-5.216457 -7.22596,-5.21875 z M 322.5478,269.36777 a 11.132056,11.132056 0 0 1 -11.13205,11.13205 11.132056,11.132056 0 0 1 -11.13206,-11.13205 11.132056,11.132056 0 0 1 11.13206,-11.13206 11.132056,11.132056 0 0 1 11.13205,11.13206 z m -11.13172,-42.21591 a 42.215923,42.215923 0 0 0 -42.21679,42.21533 42.215923,42.215923 0 0 0 42.21679,42.21679 42.215923,42.215923 0 0 0 42.21533,-42.21679 42.215923,42.215923 0 0 0 -42.21533,-42.21533 z m 0,20.72314 a 21.493345,21.493345 0 0 1 21.49366,21.49219 21.493345,21.493345 0 0 1 -21.49366,21.49365 21.493345,21.493345 0 0 1 -21.49365,-21.49365 21.493345,21.493345 0 0 1 21.49365,-21.49219 z m -106.38739,21.49277 a 11.132056,11.132056 0 0 1 -11.13205,11.13205 11.132056,11.132056 0 0 1 -11.13206,-11.13205 11.132056,11.132056 0 0 1 11.13206,-11.13206 11.132056,11.132056 0 0 1 11.13205,11.13206 z m -11.13172,-42.21591 a 42.215923,42.215923 0 0 0 -42.21679,42.21533 42.215923,42.215923 0 0 0 42.21679,42.21679 42.215923,42.215923 0 0 0 42.21533,-42.21679 42.215923,42.215923 0 0 0 -42.21533,-42.21533 z m 0,20.72314 a 21.493345,21.493345 0 0 1 21.49366,21.49219 21.493345,21.493345 0 0 1 -21.49366,21.49365 21.493345,21.493345 0 0 1 -21.49365,-21.49365 21.493345,21.493345 0 0 1 21.49365,-21.49219 z" /><rect
     style="fill:#0d3c61;stroke:none;stroke-width:0.742088;fill-opacity:1"
     id="rect292"
     width="6.2432976"
     height="92.567192"
     x="204.98695"
     y="118.52203"
     transform="matrix(0.99377831,-0.11137624,0.11614171,0.99323265,0,0)" /><rect
     style="fill:#0d3c61;stroke:none;stroke-width:0.75;fill-opacity:1"
     id="rect293"
     width="6.2449765"
     height="94.526245"
     x="155.40337"
     y="132.21321"
     transform="rotate(-12.492005)" /><rect
     style="fill:#0d3c61;stroke:none;stroke-width:0.722507;fill-opacity:1"
     id="rect294"
     width="6.2447224"
     height="87.726578"
     x="256.83472"
     y="102.39963"
     transform="matrix(0.99974736,-0.02247703,0.02609661,0.99965943,0,0)" /><rect
     style="fill:#0d3c61;stroke:none;stroke-width:0.713104;fill-opacity:1"
     id="rect295"
     width="6.244678"
     height="85.458565"
     x="300.74332"
     y="91.590317"
     transform="matrix(0.99986854,0.01621441,-0.0133701,0.99991062,0,0)" /><rect
     style="fill:#0d3c61;stroke:none;stroke-width:0.684932;fill-opacity:1"
     id="rect296"
     width="5.9842234"
     height="82.270943"
     x="354.97379"
     y="11.407124"
     transform="matrix(0.96840068,0.24939951,-0.24422042,0.96971975,0,0)" /><rect
     style="fill:#0d3c61;stroke:none;stroke-width:0.761945;fill-opacity:1"
     id="rect297"
     width="188.67702"
     height="7.3804274"
     x="159.6935"
     y="82.776726"
     transform="matrix(0.99898091,0.04513468,0,1,0,0)" /><rect
     style="fill:#0d3c61;stroke:none;stroke-width:0.694447;fill-opacity:1"
     id="rect298"
     width="156.72916"
     height="7.3804274"
     x="177.17207"
     y="149.75601"
     transform="matrix(0.99976379,-0.021734,0,1,0,0)" /><rect
     style="fill:#0d3c61;stroke:none;stroke-width:0.65765;fill-opacity:1"
     id="rect299"
     width="140.55984"
     height="7.3804274"
     x="187.79248"
     y="195.41811"
     transform="matrix(0.99763988,-0.06866348,0,1,0,0)" /></svg>
